<?xml version="1.0" encoding="UTF-8" standalone="no"?>
<!-- Created with Inkscape (http://www.inkscape.org/) -->
<svg
   xmlns:dc="http://purl.org/dc/elements/1.1/"
   xmlns:cc="http://web.resource.org/cc/"
   xmlns:rdf="http://www.w3.org/1999/02/22-rdf-syntax-ns#"
   xmlns:svg="http://www.w3.org/2000/svg"
   xmlns="http://www.w3.org/2000/svg"
   xmlns:sodipodi="http://inkscape.sourceforge.net/DTD/sodipodi-0.dtd"
   xmlns:inkscape="http://www.inkscape.org/namespaces/inkscape"
   sodipodi:docname="logo.svg"
   sodipodi:docbase="D:\Web\www.garous.org\Garous textes\images"
   inkscape:version="0.40+cvs"
   sodipodi:version="0.32"
   id="svg2"
   height="297mm"
   width="210mm">
  <defs
     id="defs3" />
  <sodipodi:namedview
     inkscape:window-y="-4"
     inkscape:window-x="-4"
     inkscape:window-height="808"
     inkscape:window-width="1152"
     inkscape:current-layer="layer1"
     inkscape:document-units="px"
     inkscape:cy="802.84266"
     inkscape:cx="374.99997"
     inkscape:zoom="0.98994949"
     inkscape:pageshadow="2"
     inkscape:pageopacity="0.0"
     borderopacity="1.0"
     bordercolor="#666666"
     pagecolor="#ffffff"
     id="base" />
  <metadata
     id="metadata4">
    <rdf:RDF
       id="RDF5">
      <cc:Work
         id="Work6"
         rdf:about="">
        <dc:format
           id="format7">image/svg+xml</dc:format>
        <dc:type
           rdf:resource="http://purl.org/dc/dcmitype/StillImage"
           id="type9" />
      </cc:Work>
    </rdf:RDF>
  </metadata>
  <g
     id="layer1"
     inkscape:groupmode="layer"
     inkscape:label="Layer 1">
    <path
       id="path2168"
       d="M 139.07980,260.56729 C 136.05961,259.75580 133.15711,258.66041 132.62980,258.13310 C 132.10248,257.60578 130.88463,257.17434 129.92345,257.17434 C 127.60355,257.17434 111.50619,241.20316 113.78161,241.15903 C 114.21580,241.15061 114.07489,240.81311 113.46850,240.40903 C 112.02256,239.44552 109.25924,230.92505 108.44261,224.91210 C 108.08688,222.29287 107.29526,220.20869 106.68344,220.28059 C 106.07162,220.35248 98.596037,220.26245 90.071037,220.08052 L 74.571037,219.74974 L 90.989767,219.21204 C 106.49128,218.70438 107.41760,218.56261 107.57134,216.67434 C 108.59419,204.11172 113.05109,194.22927 120.95311,187.00243 C 123.91325,184.29522 127.97679,181.24274 129.98321,180.21915 C 145.27838,172.41613 165.33643,173.95377 177.07245,183.82898 C 178.72419,185.21883 180.54890,185.99704 181.20508,185.59150 C 181.91743,185.15124 182.11369,185.29632 181.70353,185.95996 C 181.33145,186.56201 182.32749,188.54404 183.91696,190.36447 C 187.47933,194.44447 191.82164,202.90290 192.92958,207.92026 L 193.75856,211.67434 L 194.99723,207.17434 C 200.95618,185.52584 222.45843,171.52890 244.13851,175.18572 C 260.09257,177.87672 274.01482,189.90052 278.33597,204.71999 L 279.76359,209.61605 L 281.44952,204.54019 C 286.54823,189.18941 300.35548,177.55441 316.44635,175.04929 C 337.41785,171.78433 359.19689,185.92332 364.28571,206.10668 L 365.43736,210.67434 L 366.61424,206.06681 C 371.46850,187.06231 389.11499,173.81120 409.31587,174.00128 C 428.37902,174.18065 445.00088,187.06700 450.11100,205.62831 L 451.75019,211.58227 L 452.43565,207.29566 C 454.90428,191.85770 471.95712,176.19775 488.31566,174.34635 C 496.06801,173.46896 506.40969,174.59771 509.32456,176.63936 C 511.44993,178.12803 511.39455,178.17434 507.48933,178.17434 C 496.40556,178.17434 484.43538,193.71459 482.43967,210.69499 L 481.79568,216.17434 L 496.29680,216.17434 L 510.79791,216.17434 L 513.48483,210.18710 C 518.54340,198.91510 518.68520,188.62919 513.87177,182.11868 C 512.68451,180.51282 512.01932,178.89272 512.39358,178.51847 C 514.72421,176.18784 529.37226,189.92783 533.41583,198.23751 C 534.90474,201.29726 536.63787,206.56965 537.26725,209.95394 L 538.41156,216.10719 L 552.23970,215.89076 C 559.84518,215.77173 566.06856,215.37684 566.06944,215.01323 C 566.07263,213.69332 559.45286,208.80881 554.57104,206.52894 C 548.70764,203.79066 544.40994,203.54824 541.22888,205.77634 C 537.72647,208.22952 537.53762,206.80150 540.47022,200.03951 C 550.22933,177.53687 576.86469,167.44892 598.94266,177.89347 C 611.71388,183.93523 622.36976,198.69159 623.23460,211.53318 L 623.47981,215.17434 L 639.52543,215.33918 C 655.28991,215.50114 655.39583,215.51660 645.57104,216.22173 C 640.07104,216.61646 633.05452,216.99228 629.97878,217.05688 L 624.38653,217.17434 L 622.79775,225.23878 C 620.50505,236.87618 617.53973,239.38228 616.49366,230.56658 C 616.23964,228.42585 615.00206,224.64934 613.74347,222.17434 L 611.45513,217.67434 L 596.76308,217.39761 C 588.68246,217.24540 582.07104,217.38577 582.07104,217.70953 C 582.07104,218.03330 583.21598,220.71839 584.61535,223.67642 C 587.81387,230.43753 596.34209,238.39722 602.71368,240.56824 C 608.51413,242.54465 609.81291,242.55742 613.42512,240.67349 C 617.34395,238.62963 618.44396,239.69594 615.78336,242.95948 C 604.86644,256.35041 588.98342,262.95792 574.03915,260.32554 C 556.60663,257.25487 543.02347,244.87109 538.74328,228.14631 L 537.38211,222.82754 L 536.74676,226.80083 C 535.75321,233.01416 530.34489,242.79404 524.98454,248.07050 C 513.05614,259.81223 495.93184,263.91754 480.94246,258.62897 C 478.69605,257.83640 476.38647,257.47939 475.81005,257.83564 C 475.15073,258.24312 475.06562,257.99212 475.58058,257.15891 C 476.17989,256.18920 475.93953,256.01083 474.68315,256.49295 C 473.66387,256.88408 473.21522,256.75007 473.57812,256.16289 C 473.91414,255.61919 473.71252,255.17434 473.13006,255.17434 C 471.28492,255.17434 470.70375,254.77609 465.58281,250.00258 C 459.43427,244.27117 454.59606,236.44191 452.76736,229.26441 L 451.38901,223.85449 L 450.15434,228.76441 C 448.28637,236.19281 444.37997,242.57523 437.94404,248.71406 C 417.98990,267.74709 386.83772,263.75996 371.90577,240.26190 C 369.27387,236.12013 367.42635,230.99732 365.60773,222.79864 L 364.96984,219.92295 L 362.56180,223.18686 C 361.23738,224.98202 358.78741,227.40108 357.11742,228.56256 C 354.46863,230.40480 354.13351,231.15468 354.49177,234.43770 C 355.18978,240.83414 353.31990,245.08548 347.05142,251.35396 C 341.47815,256.92723 337.46655,259.46766 335.79542,258.48207 C 335.36882,258.23048 336.38132,256.75277 338.04542,255.19828 C 342.17540,251.34029 342.20095,245.67705 338.12045,238.56271 C 334.56139,232.35747 330.44302,228.75269 322.74308,225.10298 C 314.11513,221.01340 308.17622,220.46092 302.48079,223.21803 C 298.20498,225.28791 297.91875,225.66291 298.47850,228.46164 C 300.26789,237.40860 309.19349,248.91869 319.64298,255.75449 C 326.33862,260.13461 326.87863,260.71563 324.77651,261.27782 C 321.25475,262.21968 310.66663,260.32768 304.70522,257.69126 C 296.80466,254.19726 288.78904,246.33301 284.60600,237.97159 C 282.66177,234.08531 281.07104,230.06609 281.07104,229.03998 C 281.07104,228.01388 280.62104,227.17434 280.07104,227.17434 C 279.52104,227.17434 279.07104,228.01388 279.07104,229.03998 C 279.07104,233.46956 271.93066,245.13357 265.85093,250.63541 C 262.48454,253.68182 259.24440,256.16373 258.65063,256.15077 C 257.49321,256.12550 252.62958,246.47858 252.75836,244.46356 C 252.80092,243.79762 252.55119,243.34745 252.20339,243.46318 C 251.85560,243.57890 249.56411,241.49598 247.11119,238.83446 C 237.92643,228.86865 226.82708,226.40619 220.91520,233.02272 C 217.53135,236.80991 216.08383,241.85616 216.07662,249.89061 L 216.07104,256.10689 L 212.55767,254.03395 C 205.20491,249.69572 195.16894,234.68691 194.99209,227.76462 C 194.94867,226.06497 194.68617,225.23684 194.40876,225.92434 C 193.51330,228.14352 191.63563,227.22293 188.75619,223.15299 C 186.27693,219.64870 185.46513,219.17434 181.94717,219.17434 C 179.53904,219.17434 178.19842,219.57143 178.57104,220.17434 C 178.91096,220.72434 179.61641,221.17434 180.13871,221.17434 C 181.67042,221.17434 187.15171,226.44203 188.67157,229.37468 C 191.72076,235.25824 189.28771,241.89726 181.14487,249.91268 C 170.29565,260.59212 154.27482,264.65001 139.07980,260.56729 z M 161.05750,259.61600 C 174.95987,256.33940 188.19277,244.58324 188.42430,235.30324 C 188.61700,227.57973 178.51833,219.87131 168.32715,219.96289 C 165.30543,219.99004 162.34125,220.50413 161.74007,221.10531 C 161.13889,221.70649 160.71777,223.97273 160.80425,226.14139 C 160.94893,229.76960 160.57456,230.36845 156.11546,233.64173 C 148.49103,239.23858 142.58393,241.47808 136.88902,240.93087 C 128.43348,240.11840 123.63399,232.87744 125.82626,224.24056 L 126.85838,220.17434 L 117.96471,220.17434 C 113.00921,220.17434 109.07104,220.59535 109.07104,221.12512 C 109.07104,224.30612 111.68884,233.40685 113.82145,237.63981 C 119.44840,248.80860 128.50581,256.34655 139.85687,259.30759 C 148.23284,261.49254 152.81281,261.55917 161.05750,259.61600 z M 318.46748,257.34656 C 312.28745,252.86977 302.32070,241.39507 299.57973,235.60112 C 296.09710,228.23945 296.28270,225.22033 300.38975,222.42434 C 307.64966,217.48196 321.73250,220.74601 333.02484,229.98834 C 335.50181,232.01564 337.80051,233.58684 338.13307,233.47990 C 338.46562,233.37295 338.73771,233.85223 338.73771,234.54496 C 338.73771,235.23769 339.81396,237.26018 341.12938,239.03938 C 343.61309,242.39878 344.32843,248.66085 342.68695,252.67434 C 342.23706,253.77434 343.89933,252.60548 346.38088,250.07687 C 351.56586,244.79358 353.47430,239.62957 351.90524,235.12858 C 351.33882,233.50375 350.46941,232.17434 349.97321,232.17434 C 347.83944,232.17434 349.34421,230.47734 352.48507,229.34159 C 355.83711,228.12947 363.07104,221.15944 363.07104,219.14180 C 363.07104,218.45461 349.51077,218.14562 322.07104,218.20756 L 281.07104,218.30011 L 281.07104,221.57207 C 281.07104,225.82470 284.56991,236.42438 287.49878,241.04468 C 290.09171,245.13501 298.45845,253.24094 302.09793,255.18873 C 306.89542,257.75627 314.65843,260.10300 318.47108,260.13826 L 322.37112,260.17434 L 318.46748,257.34656 z M 422.67632,257.02265 C 437.71304,251.47449 448.45984,238.00633 449.82007,223.00543 L 450.36882,216.95376 L 437.46993,217.59904 C 428.69715,218.03791 424.45408,218.63299 424.20541,219.45933 C 424.00431,220.12759 420.98357,223.44824 417.49266,226.83855 C 413.07028,231.13350 409.45503,233.63527 405.57078,235.08855 C 398.95569,237.56358 397.14462,237.64975 392.50293,235.71033 C 387.74849,233.72380 385.59033,228.66882 386.89166,222.56728 L 387.82858,218.17434 L 377.06599,218.17434 L 366.30339,218.17434 L 367.61718,225.06938 C 372.55656,250.99225 398.38909,265.98402 422.67632,257.02265 z M 508.84409,257.06442 C 516.17224,254.64803 523.70200,249.03332 528.52653,242.38781 C 532.36094,237.10614 536.07104,226.53736 536.07104,220.89613 L 536.07104,217.17434 L 524.27766,217.17434 L 512.48429,217.17434 L 506.45919,223.03357 C 501.43908,227.91548 499.66210,229.00858 495.80592,229.58685 C 489.21170,230.57571 485.41418,228.39378 482.74861,222.08456 L 480.67410,217.17434 L 466.73267,217.17434 L 452.79123,217.17434 L 453.34180,222.42434 C 454.09790,229.63419 457.33009,237.71443 461.84206,243.67434 C 467.92287,251.70656 476.36723,256.55346 489.57104,259.59026 C 493.11651,260.40569 502.40127,259.18887 508.84409,257.06442 z M 596.57104,256.32164 C 603.28944,253.31083 608.50057,249.61105 611.42705,245.77423 L 613.84651,242.60215 L 610.40697,243.00370 C 608.51521,243.22455 604.87834,242.82034 602.32503,242.10546 C 594.93715,240.03698 583.58980,227.87362 580.69908,218.92434 C 580.27075,217.59830 579.03602,217.17434 575.60242,217.17434 C 573.11016,217.17434 571.07104,217.34790 571.07104,217.56003 C 571.07104,217.77216 571.74327,219.23466 572.56488,220.81003 C 574.50219,224.52466 574.48684,231.13569 572.53443,233.92315 C 570.33623,237.06151 564.11172,238.53165 558.92991,237.13634 C 553.81822,235.75990 547.78164,232.09283 542.75072,227.30788 L 538.93041,223.67434 L 539.58641,226.67434 C 540.99654,233.12307 546.38930,242.44533 551.77686,247.74749 C 554.80352,250.72619 557.68290,252.91423 558.17546,252.60980 C 558.66803,252.30538 559.07104,252.47745 559.07104,252.99218 C 559.07104,253.88365 566.32304,257.36343 570.57104,258.51030 C 571.67104,258.80728 576.84604,258.94048 582.07104,258.80631 C 589.37722,258.61870 592.72568,258.04491 596.57104,256.32164 z M 263.21214,251.42434 C 272.67089,243.52900 278.94418,231.54481 279.04691,221.17434 L 279.07168,218.67434 L 237.01330,218.94579 L 194.95493,219.21723 L 195.64347,223.94579 C 196.70294,231.22175 199.82924,238.68885 204.05346,244.03289 C 207.69378,248.63823 212.61840,253.18141 213.95590,253.16832 C 214.29423,253.16501 214.60557,250.73408 214.64778,247.76625 C 214.79435,237.46054 219.86764,229.25647 227.07258,227.67400 C 231.88494,226.61703 240.11909,229.74894 245.95904,234.85758 C 248.77856,237.32403 250.84986,239.72320 250.56193,240.18909 C 250.27400,240.65497 250.56529,241.36177 251.20924,241.75975 C 251.98809,242.24111 252.13189,242.01315 251.63877,241.07885 C 251.23106,240.30637 251.82653,240.79934 252.96203,242.17434 C 254.96788,244.60327 255.46071,245.79456 255.16468,247.49867 C 255.08593,247.95205 255.55911,247.99073 256.21620,247.58462 C 257.03818,247.07662 257.20548,247.38162 256.75243,248.56223 C 256.36130,249.58151 256.49531,250.03016 257.08249,249.66726 C 257.94350,249.13513 258.54458,251.17524 258.18946,253.42434 C 257.95254,254.92483 259.99085,254.11319 263.21214,251.42434 z M 148.63724,237.02859 C 150.87365,235.98265 154.24209,233.84236 156.12265,232.27239 C 159.05061,229.82802 159.49642,228.89035 159.22553,225.74610 C 159.05154,223.72660 159.35835,221.53430 159.90734,220.87432 C 160.67842,219.94733 157.19450,219.74161 144.59294,219.97006 C 126.22225,220.30308 127.11468,219.85801 127.08469,228.70183 C 127.05034,238.83375 136.75809,242.58431 148.63724,237.02859 z M 569.43618,234.10176 C 572.75253,231.49312 573.04566,225.28509 570.08200,220.42434 L 568.10044,217.17434 L 553.08574,217.17434 C 544.82765,217.17434 538.07104,217.42169 538.07104,217.72400 C 538.07104,218.02631 538.70895,219.48881 539.48862,220.97400 C 543.23669,228.11368 555.76494,236.14452 563.18618,236.16457 C 565.34162,236.17040 567.86521,235.33749 569.43618,234.10176 z M 406.83194,232.96921 C 411.35904,230.86273 422.07104,221.13448 422.07104,219.12962 C 422.07104,218.56145 415.43196,218.17434 405.68767,218.17434 C 387.24083,218.17434 388.11602,217.76190 388.08469,226.46979 C 388.05508,234.70148 396.68165,237.69219 406.83194,232.96921 z M 621.99419,220.92434 L 622.07104,217.17434 L 617.62148,217.17434 L 613.17192,217.17434 L 615.37148,221.42434 C 616.58124,223.76184 617.90854,225.82434 618.32104,226.00767 C 618.73354,226.19101 619.11822,227.76601 619.17589,229.50767 L 619.28075,232.67434 L 620.59904,228.67434 C 621.32410,226.47434 621.95192,222.98684 621.99419,220.92434 z M 498.45366,227.21897 C 501.27579,226.14600 509.07104,219.42002 509.07104,218.05798 C 509.07104,217.57198 503.22104,217.17434 496.07104,217.17434 C 484.28015,217.17434 483.07104,217.33966 483.07104,218.95183 C 483.07104,220.93428 485.54541,225.01226 487.90847,226.92434 C 489.74380,228.40940 494.94069,228.55460 498.45366,227.21897 z M 193.07104,222.17434 C 193.07104,219.61739 192.69060,219.17434 190.49498,219.17434 L 187.91892,219.17434 L 190.24498,222.11901 C 191.52431,223.73858 192.68354,225.08858 192.82104,225.11901 C 192.95854,225.14944 193.07104,223.82434 193.07104,222.17434 z M 125.07104,218.17907 C 127.08243,218.17144 128.13247,217.09511 130.44366,212.67192 C 138.06341,198.08910 157.20440,187.52295 167.07104,192.45299 C 170.22046,194.02666 173.06746,199.60171 173.06949,204.19928 C 173.07090,207.40705 173.70737,208.19437 180.14299,212.94928 C 185.04018,216.56754 188.15498,218.17434 190.27182,218.17434 L 193.32870,218.17434 L 192.63936,212.97783 C 191.64174,205.45744 186.06441,194.11508 180.75160,188.80227 C 175.07104,183.12171 166.25028,178.62552 157.69338,177.04885 C 141.55505,174.07525 123.19385,182.47714 115.16555,196.50914 C 111.97442,202.08666 109.07104,211.62399 109.07104,216.52904 L 109.07104,219.46355 L 115.82104,218.82605 C 119.53354,218.47543 123.69604,218.18429 125.07104,218.17907 z M 158.38557,218.13793 L 184.52034,218.10773 L 181.54569,215.62172 C 179.90963,214.25442 176.88354,212.23526 174.82104,211.13471 C 171.35266,209.28397 171.07104,208.80081 171.07104,204.70107 C 171.07104,196.04716 167.11988,192.45787 158.64503,193.41311 C 149.32367,194.46376 137.53831,202.94455 132.01322,212.57743 C 128.68031,218.38828 128.40662,219.64328 130.66092,218.77822 C 131.53536,218.44267 144.01145,218.15454 158.38557,218.13793 z M 278.96033,217.18719 C 279.17444,217.18012 279.07204,214.81184 278.73278,211.92434 C 277.75439,203.59716 272.05678,193.23419 264.89206,186.75049 C 256.17490,178.86191 250.31449,176.74609 237.07104,176.70607 C 227.64471,176.67758 225.96466,176.95832 220.64091,179.45148 C 206.33907,186.14918 197.88351,197.63961 195.52280,213.58497 L 194.79578,218.49559 L 236.68341,217.84782 C 259.72161,217.49154 278.74622,217.19426 278.96033,217.18719 z M 233.69581,208.70523 C 231.56443,207.94550 228.33711,205.88609 226.52400,204.12875 C 218.62332,196.47110 222.67715,189.74935 234.03847,191.66884 C 239.59581,192.60774 247.07104,199.64483 247.07104,203.93752 C 247.07104,209.59116 241.62621,211.53202 233.69581,208.70523 z M 244.87104,206.97434 C 247.02344,204.82194 246.14302,201.93314 242.18801,198.17083 C 232.60453,189.05429 218.70728,192.64642 226.71998,202.16898 C 228.23353,203.96773 230.84420,206.03717 232.52146,206.76774 C 236.35929,208.43940 243.29004,208.55534 244.87104,206.97434 z M 363.83029,216.34429 C 364.80035,215.72846 364.85455,214.29665 364.06630,210.10961 C 361.70967,197.59153 353.64634,186.86596 341.85648,180.56683 C 334.60095,176.69032 334.52373,176.67434 323.05001,176.67434 C 312.09235,176.67434 311.20882,176.83196 304.98150,179.89765 C 298.59092,183.04373 291.01274,189.71179 287.02668,195.69616 C 284.59484,199.34715 281.07104,210.34253 281.07104,214.27968 L 281.07104,217.17434 L 321.82104,217.15903 C 344.23354,217.15060 363.13770,216.78398 363.83029,216.34429 z M 327.07818,203.58136 C 320.11136,200.56016 316.87997,194.76541 320.27104,191.37434 C 322.89417,188.75121 331.27115,191.45288 334.77155,196.05092 C 336.69256,198.57430 336.34873,202.95536 334.13678,204.13916 C 331.69066,205.44828 331.31476,205.41857 327.07818,203.58136 z M 334.73388,201.61057 C 336.35643,197.38229 328.87301,191.25428 323.67894,192.55790 C 318.53958,193.84780 319.33086,197.51741 325.57104,201.33266 C 329.26698,203.59236 333.91925,203.73346 334.73388,201.61057 z M 390.37988,212.91033 C 393.69262,207.25756 402.98960,198.56722 408.30554,196.15435 C 422.94851,189.50799 432.80114,199.35835 426.57972,214.42434 C 425.91457,216.03507 426.83151,216.17434 438.10173,216.17434 L 450.34640,216.17434 L 449.68044,210.50805 C 448.38967,199.52561 440.73895,187.86070 430.57104,181.37232 C 424.83989,177.71513 415.86342,175.17247 408.73195,175.18621 C 386.70584,175.22864 369.48028,190.68250 366.66735,212.92434 L 366.12985,217.17434 L 377.00542,217.17434 L 387.88100,217.17434 L 390.37988,212.91033 z M 414.74667,216.17434 C 424.03810,216.17434 424.13026,216.15015 425.22583,213.42434 C 425.83374,211.91184 426.38510,208.57373 426.45108,206.00632 C 426.62001,199.43266 423.51877,196.17434 417.09307,196.17434 C 412.15486,196.17434 404.57346,199.37884 399.98564,203.40529 C 396.71446,206.27621 390.07104,214.98194 390.07104,216.39767 C 390.07104,217.12097 392.55080,217.25820 397.72192,216.82108 C 401.92990,216.46537 409.59104,216.17434 414.74667,216.17434 z M 481.39656,209.59139 C 482.07070,202.37216 486.82319,191.20537 491.71727,185.34107 C 494.79414,181.65425 501.68980,177.23974 504.65890,177.05603 C 508.33708,176.82844 500.60146,175.41162 495.03114,175.29266 C 479.83595,174.96813 464.22003,184.05318 457.63434,197.04942 C 454.90018,202.44502 452.09703,212.83319 452.81095,214.92434 C 453.12465,215.84317 456.88639,216.17434 467.00977,216.17434 L 480.78183,216.17434 L 481.39656,209.59139 z M 535.78577,211.41348 C 534.66925,201.98625 531.25891,195.18021 524.01594,187.92434 C 520.31004,184.21184 516.82989,181.17434 516.28229,181.17434 C 515.73468,181.17434 516.13813,182.84449 517.17884,184.88578 C 518.27181,187.02957 519.07104,190.66446 519.07104,193.49144 C 519.07104,199.76616 516.47329,209.80068 513.92095,213.38513 L 511.93485,216.17434 L 524.14224,216.17434 L 536.34962,216.17434 L 535.78577,211.41348 z M 580.07105,212.34742 C 580.07104,210.00362 580.93483,208.15671 582.99412,206.09742 C 587.38966,201.70187 593.57745,201.97147 601.97352,206.92434 C 605.46985,208.98684 608.79435,211.68684 609.36128,212.92434 C 610.26256,214.89164 611.14284,215.17434 616.36748,215.17434 L 622.34289,215.17434 L 621.70098,210.49112 C 620.17627,199.36714 611.21841,186.37737 601.07104,180.57569 C 589.50612,173.96353 574.59299,173.40382 562.63223,179.13303 C 554.49512,183.03071 547.30687,189.80204 543.65411,197.01040 C 542.23342,199.81400 541.07104,202.28353 541.07104,202.49824 C 541.07104,202.71295 543.47494,202.88863 546.41304,202.88863 C 552.60121,202.88863 561.74056,207.17491 566.89877,212.49627 C 569.55850,215.24012 570.66883,215.67434 575.02523,215.67434 L 580.07106,215.67434 L 580.07105,212.34742 z M 597.40283,215.17312 L 609.57104,215.17190 L 606.57104,212.57887 C 595.38969,202.91436 583.46220,202.11665 581.77918,210.92080 C 581.11932,214.37259 581.97393,216.42558 583.78187,215.73181 C 584.58088,215.42520 590.71031,215.17379 597.40283,215.17312 z "
       style="stroke-width:0.60000000;stroke-miterlimit:4.0000000;stroke-dasharray:none;stroke-opacity:1.0000000;fill:#000000;stroke:#000000" />
  </g>
</svg>
