<?xml version="1.0" encoding="UTF-8" standalone="no"?>
<!-- Created with Inkscape (http://www.inkscape.org/) -->

<svg
   xmlns:dc="http://purl.org/dc/elements/1.1/"
   xmlns:cc="http://creativecommons.org/ns#"
   xmlns:rdf="http://www.w3.org/1999/02/22-rdf-syntax-ns#"
   xmlns:svg="http://www.w3.org/2000/svg"
   xmlns="http://www.w3.org/2000/svg"
   xmlns:sodipodi="http://sodipodi.sourceforge.net/DTD/sodipodi-0.dtd"
   xmlns:inkscape="http://www.inkscape.org/namespaces/inkscape"
   width="210mm"
   height="297mm"
   id="svg1"
   sodipodi:version="0.32"
   inkscape:version="0.48.1 r9760"
   sodipodi:docname="mascotte.svg"
   inkscape:export-filename="C:\DOCUME~1\PROPRI~1\Bureau\feuille0.2.png"
   inkscape:export-xdpi="72.000000"
   inkscape:export-ydpi="72.000000"
   version="1.1">
  <defs
     id="defs3" />
  <sodipodi:namedview
     id="base"
     pagecolor="#ffffff"
     bordercolor="#666666"
     borderopacity="1.0"
     inkscape:pageopacity="0.0"
     inkscape:pageshadow="2"
     inkscape:zoom="1.0690233"
     inkscape:cx="312.74301"
     inkscape:cy="341.84128"
     inkscape:current-layer="svg1"
     inkscape:window-width="1920"
     inkscape:window-height="1145"
     inkscape:window-x="-3"
     inkscape:window-y="-3"
     showguides="false"
     showgrid="true"
     inkscape:window-maximized="1" />
  <metadata
     id="metadata4">
    <rdf:RDF>
      <cc:Work
         rdf:about="">
        <dc:format>image/svg+xml</dc:format>
        <dc:type
           rdf:resource="http://purl.org/dc/dcmitype/StillImage" />
        <dc:title></dc:title>
      </cc:Work>
    </rdf:RDF>
  </metadata>
  <g
     inkscape:label="Layer 1"
     inkscape:groupmode="layer"
     id="layer1">
    <text
       xml:space="preserve"
       style="font-size:12.000000;font-style:normal;font-weight:normal;fill:#000000;fill-opacity:1.0000000;stroke:none;stroke-width:1.0000000pt;stroke-linecap:butt;stroke-linejoin:miter;stroke-opacity:1.0000000;font-family:Bitstream Vera Sans"
       x="152.00792"
       y="245.55093"
       id="text1744"><tspan
         sodipodi:role="line"
         id="tspan1745"
         x="152.00792"
         y="245.55093" /></text>
  </g>
  <text
     xml:space="preserve"
     style="font-size:12.000000;font-style:normal;font-weight:normal;fill:#000000;fill-opacity:1.0000000;stroke:none;stroke-width:1.0000000px;stroke-linecap:butt;stroke-linejoin:miter;stroke-opacity:1.0000000;font-family:Bitstream Vera Sans"
     x="86.05986"
     y="332.07855"
     id="text1341"><tspan
       sodipodi:role="line"
       id="tspan1343"
       x="86.059860"
       y="332.07855" /></text>
  <path
     style="fill:#000000;fill-opacity:0.16883114"
     id="path1401"
     d="m 408.6976,926.55713 c 2.01683,-9.48 14.87661,-38.622 22.35332,-50.65591 3.58254,-5.76617 12.01761,-17.10667 18.74459,-25.20109 27.13978,-32.6567 35.35758,-57.27515 29.65854,-88.84937 -2.93417,-16.25626 -11.15285,-36.36607 -15.67374,-38.35126 -4.19589,-1.8425 -14.46502,6.85032 -40.69466,34.44805 -32.3513,34.03867 -42.98425,39.09696 -61.47915,29.24665 -5.74107,-3.0577 -13.55032,-6.32863 -17.35389,-7.26876 -15.69961,-3.88049 -22.19848,-9.85452 -28.71825,-26.39893 -3.38666,-8.59395 -7.61462,-18.95636 -9.39545,-23.02759 -2.96889,-6.78729 -2.95235,-8.75594 0.1991,-23.69724 5.78711,-27.43725 4.72474,-68.7015 -2.68794,-104.40571 -3.36869,-16.22577 -6.1249,-31.64105 -6.1249,-34.25613 0,-8.47207 6.27123,-20.20738 20.63536,-38.61482 7.73982,-9.91849 14.07241,-18.86959 14.07241,-19.89132 0,-1.02176 1.37811,-1.85773 3.06246,-1.85773 6.21412,0 2.68693,6.93039 -12.05912,23.69434 -19.57682,22.25575 -21.53309,29.25384 -15.79061,56.48709 8.86733,42.05263 11.62384,71.47186 8.24835,88.0319 -1.17864,5.78233 -2.92095,18.91965 -3.87182,29.19403 -1.45864,15.76096 -1.14915,20.3254 1.98018,29.2037 2.03998,5.78766 4.8085,13.86384 6.15228,17.94708 3.37198,10.2462 7.03843,13.46099 23.34633,20.47037 7.77178,3.34044 15.19063,7.08034 16.48635,8.31089 1.29573,1.23055 7.40515,2.47916 13.57652,2.77467 13.72109,0.65704 21.30759,-4.01441 43.18885,-26.59382 13.81293,-14.25365 15.29314,-16.64985 16.59668,-26.86741 4.76471,-37.3471 4.75231,-35.49402 0.24232,-36.23259 -5.81149,-0.95169 -7.89661,-18.27315 -3.67471,-30.52668 2.90204,-8.42281 3.36745,-8.75181 10.45275,-7.38896 12.74521,2.4515 14.52206,3.50006 17.64607,10.41309 4.75829,10.52954 3.74717,13.51781 -6.86898,20.30047 -9.65062,6.16579 -9.88669,6.57705 -9.05256,15.76932 0.47105,5.19114 -0.49238,14.43226 -2.14096,20.53584 -1.6486,6.10357 -2.58875,11.09741 -2.08924,11.09741 0.4995,0 5.6923,-4.03483 11.53958,-8.96629 15.89534,-13.40576 25.3468,-19.77338 42.27672,-28.4826 24.30353,-12.50241 31.91384,-19.38638 38.87358,-35.16341 4.4199,-10.01944 5.41458,-14.18796 3.54203,-14.84366 -13.10863,-4.59033 -17.22183,-6.82449 -24.18829,-13.13837 -12.16932,-11.02935 -10.1742,-16.22049 6.23411,-16.22049 5.53403,0 10.89424,2.38711 18.48362,8.23152 l 10.68924,8.23152 12.4843,-13.12333 c 29.71903,-31.24016 31.99835,-34.42221 43.3936,-60.57941 6.15775,-14.13483 11.72264,-30.19329 12.36638,-35.68548 0.64375,-5.49216 1.96522,-10.54786 2.93659,-11.23485 3.79503,-2.68396 5.24651,1.70379 3.71883,11.24193 -0.87908,5.48878 -1.41991,10.1874 -1.20182,10.4414 0.2181,0.254 4.96174,-3.78405 10.5414,-8.97348 11.40977,-10.61171 47.68965,-31.59983 61.68582,-35.68562 l 9.20183,-2.6862 -8.26788,-6.26109 c -10.10527,-7.65251 -28.39631,-14.90433 -43.2985,-17.1665 -6.11617,-0.92844 -15.97693,-4.23241 -21.91284,-7.34218 -12.62077,-6.61188 -36.50131,-31.43524 -34.25051,-35.6027 1.04424,-1.9335 3.33307,-0.76937 7.55495,3.84253 l 6.05683,6.61639 -1.40199,-7.00889 c -4.22857,-21.13965 -24.92829,-59.31202 -41.29343,-76.14929 -5.52771,-5.68715 -15.479,-13.40504 -22.114,-17.15084 -10.6549,-6.01526 -14.32853,-6.83103 -31.45915,-6.9856 l -19.39552,-0.17501 -0.63852,11.55263 c -0.3808,6.88981 1.00747,17.73389 3.4396,26.86741 6.85705,25.75075 7.49333,44.51848 1.50924,44.51848 -5.06897,0 -17.16569,-14.34769 -23.42256,-27.78102 -3.61555,-7.76251 -7.45521,-14.73705 -8.53258,-15.49901 -3.86808,-2.73562 -1.83612,4.35357 4.95151,17.27516 3.80071,7.23539 8.39438,19.09938 10.20817,26.36445 3.67613,14.72462 4.40627,33.16274 1.26559,31.95917 -6.02521,-2.30891 -20.81854,-18.6696 -26.28708,-29.07217 -6.03915,-11.48803 -20.67993,-27.10769 -20.67993,-22.06258 0,1.34665 3.11241,6.39398 6.91644,11.21631 13.39469,16.98015 20.6772,39.13359 14.72322,44.7881 -5.62084,5.33814 -13.93617,0.51371 -28.14894,-16.33159 -16.90017,-20.0305 -23.49657,-21.98563 -14.02114,-4.15579 2.18303,4.10784 6.02953,14.66052 8.54776,23.45044 4.99613,17.43905 3.85765,22.40522 -4.44502,19.38972 -7.25562,-2.63521 -23.47017,-22.31495 -27.88308,-33.84193 -2.21368,-5.78234 -5.5414,-11.94591 -7.39494,-13.69682 -2.90553,-2.74466 -3.54052,-2.58364 -4.60644,1.16815 -3.80777,13.40242 -6.02513,17.76982 -11.13617,21.93448 -3.113,2.53659 -6.84603,4.61196 -8.29559,4.61196 -1.44956,0 -5.21841,2.83167 -8.37523,6.29261 -8.13426,8.91785 -10.96594,4.82286 -6.6723,-9.64905 1.81201,-6.10742 2.87057,-11.58954 2.35239,-12.18252 -1.5141,-1.73262 -22.02776,27.78475 -31.89606,45.8957 -9.51009,17.45353 -40.69423,58.39883 -59.61918,78.28104 -6.11549,6.42482 -16.78788,17.69693 -23.71641,25.04914 -13.15106,13.95523 -19.29542,17.76646 -41.32536,25.63347 -17.64947,6.30272 -24.09536,10.18305 -32.8543,19.77775 -4.03363,4.41852 -10.13226,9.82219 -13.55252,12.00814 -19.38936,12.39209 -41.348746,23.81593 -48.114796,25.03057 -6.65301,1.19436 -8.77562,3.22243 -14.96993,14.30327 -7.84216,14.02859 -21.69763,54.38664 -26.36062,76.78284 -5.9728,28.68718 -3.98545,39.00886 17.73414,92.10514 11.47204,28.04488 23.18265,46.61813 33.339896,52.87754 8.51494,5.24755 10.91268,10.3811 4.84866,10.3811 -2.54733,0 -9.479796,-6.09096 -17.238246,-15.14574 -10.49778,-12.25178 -15.48359,-20.95161 -26.0939,-45.53211 -17.16083,-39.75582 -22.52202,-59.77851 -21.01639,-78.49109 1.03521,-12.86631 11.01482,-52.18078 15.83932,-62.39874 1.07786,-2.28282 3.74262,-9.32661 5.9217,-15.65288 4.81858,-13.98921 17.3578,-34.44413 22.08657,-36.02926 1.89905,-0.63657 7.12776,-1.86715 11.61935,-2.73459 11.449946,-2.21128 32.193926,-15.07507 48.830286,-30.28069 15.23028,-13.92045 25.15838,-19.74724 43.89982,-25.76479 8.70999,-2.79662 16.71457,-8.07651 29.37664,-19.3771 30.23959,-26.98817 38.11538,-34.90845 46.13579,-46.3964 4.29683,-6.1545 10.32628,-13.81835 13.3988,-17.03075 7.43165,-7.77006 20.90776,-28.19884 30.25779,-45.86863 4.17013,-7.88074 14.86893,-23.56451 23.77511,-34.85282 14.15764,-17.94439 16.81346,-22.74634 21.12899,-38.20323 4.87766,-17.47031 5.042,-17.71396 13.91826,-20.63756 10.57881,-3.48435 14.08642,-8.0741 14.08642,-18.43221 0,-12.51287 3.29305,-19.56407 9.13682,-19.56407 2.83503,0 5.15462,-1.01475 5.15462,-2.25499 0,-4.07537 12.59706,-18.77168 16.0903,-18.77168 1.8796,0 5.46098,1.63791 7.95861,3.63979 5.57229,4.4663 7.18379,3.4194 13.01633,-8.45597 4.78402,-9.74051 12.49946,-14.1616 16.57505,-9.49779 3.22029,3.68506 8.68243,3.27771 11.69199,-0.87195 1.39788,-1.92745 3.84441,-3.50445 5.43674,-3.50445 2.80037,0 11.66998,6.318 20.08368,14.30599 2.91749,2.76988 9.3292,4.15757 22.45797,4.86059 15.86323,0.84945 20.30109,2.08164 32.46867,9.01497 18.72432,10.66952 31.22365,23.91833 44.76815,47.45249 14.20498,24.68178 20.96017,39.95658 24.02632,54.32814 1.33578,6.26107 3.44452,12.86522 4.68608,14.67592 3.56755,5.2029 22.02475,14.18213 29.20363,14.20722 11.62324,0.0406 37.92312,11.23901 52.16705,22.2125 7.57956,5.8393 13.78103,11.48024 13.78103,12.53545 0,1.05521 -7.23637,3.54995 -16.08083,5.54389 -19.51077,4.39859 -46.24015,18.62175 -61.6829,32.82251 -11.1552,10.25804 -19.67337,22.37849 -37.29608,53.06848 -5.33881,9.29757 -15.20047,21.40755 -25.433,31.23135 -14.06789,13.50599 -16.71299,17.15063 -16.71299,23.02869 0,14.48424 7.29522,44.99776 23.05488,96.43107 9.54145,31.13949 10.60682,45.35594 5.81194,77.55606 -4.00252,26.87921 -5.8816,33.42986 -18.06903,62.99078 -6.54321,15.87083 -13.61896,19.52317 -58.77619,30.34045 -10.06421,2.41083 -62.48916,7.24488 -74.05959,6.829 l -12.81056,-0.46049 -3.49131,11.24877 c -3.79344,12.22207 -10.15125,16.18797 -7.73357,4.824 z m 58.71351,-24.07458 c 24.1924,-2.83744 59.25107,-10.17107 74.0893,-15.49829 11.53492,-4.14132 16.6396,-8.43567 18.58891,-15.63826 0.7366,-2.72171 3.04244,-9.15389 5.12407,-14.29374 6.25142,-15.43558 12.18892,-45.41491 13.41864,-67.75259 1.31495,-23.88611 -1.16175,-38.16476 -12.56252,-72.42519 -6.61728,-19.88562 -13.34473,-47.63614 -16.29914,-67.23344 -1.68992,-11.20974 -4.24317,-9.45314 -10.7167,7.37291 -2.77934,7.22404 -7.26301,16.47016 -9.96374,20.54695 -6.17588,9.32255 -24.15733,21.90589 -42.71129,29.8892 -7.85902,3.38151 -15.09216,7.06718 -16.0737,8.19038 -1.01837,1.16534 -0.0807,4.87797 2.18388,8.64698 10.40277,17.3135 14.90829,33.07072 14.90829,52.1388 0,30.85062 -5.94193,44.07201 -38.85974,86.46674 -13.12581,16.90467 -24.43091,34.37797 -24.43091,37.76046 0,4.25066 16.65929,4.95412 43.30465,1.82909 z M 452.67227,680.72341 c 1.98545,-1.43643 2.34075,-2.95855 1.02082,-4.37336 -1.27025,-1.36157 -3.48885,-0.52735 -5.95465,2.23901 -2.90359,3.25752 -3.17021,4.39978 -1.02082,4.37336 1.60011,-0.0197 4.27969,-1.02725 5.95465,-2.23901 z m -9.33868,-5.62067 c 7.05611,-5.47947 7.10109,-5.61874 3.14061,-9.72023 -2.20993,-2.28861 -4.44244,-3.6755 -4.96109,-3.08197 -1.64523,1.88268 -7.29541,18.36135 -6.29573,18.36135 0.52666,0 4.17894,-2.50161 8.11621,-5.55915 z m 94.07457,-38.84709 c -1.86375,-3.45085 -11.20396,-8.51314 -19.38654,-10.50726 l -7.14572,-1.74143 3.91722,4.99982 c 5.32148,6.79217 25.9373,13.40022 22.61504,7.24887 z M 413.78194,445.30039 c -1.36752,-4.8298 -5.11635,-14.79665 -8.33074,-22.14853 -5.32164,-12.17159 -5.84434,-15.567 -5.84434,-37.96482 0,-20.30713 0.53419,-24.59774 3.06245,-24.59774 2.48022,0 3.06245,3.74791 3.06245,19.71334 l 0,19.71337 8.98593,7.38456 c 4.94224,4.06151 11.83829,11.92969 15.32454,17.48484 4.22412,6.73092 8.42645,10.62504 12.59723,11.67331 3.44223,0.86515 6.74382,1.01774 7.33689,0.33906 2.68941,-3.07755 -4.62226,-18.86379 -14.75727,-31.86163 -12.10475,-15.52399 -12.18633,-15.89957 -9.78206,-45.03092 0.83133,-10.07285 2.20474,-15.77 3.80162,-15.77 2.6154,0 5.01519,12.02118 5.05352,25.3144 0.0225,7.79402 3.74603,13.50846 31.23595,47.93711 l 7.73471,9.68701 -1.37002,-11.68149 c -1.3822,-11.78551 -8.78554,-31.51574 -14.71556,-39.2177 -3.65704,-4.74978 -6.98968,-29.92501 -5.26364,-39.76236 1.9215,-10.95139 7.51433,-6.98038 10.62158,7.54147 1.48508,6.94053 4.7835,15.86586 7.32983,19.83406 2.54635,3.9682 5.76202,10.50822 7.14598,14.5334 1.38395,4.02518 5.20572,10.26704 8.49283,13.8708 l 5.97656,6.55231 0.006,-9.19821 c 0.004,-5.05902 -1.79831,-16.55754 -4.00417,-25.55228 -2.20585,-8.99474 -4.56401,-24.25824 -5.24039,-33.91889 -1.15867,-16.54895 -1.59374,-17.80384 -7.52274,-21.69772 -6.10163,-4.00726 -6.42756,-3.98822 -10.72032,0.62666 -5.31308,5.71178 -7.87194,5.91424 -14.25548,1.12792 -4.64666,-3.48402 -5.06556,-3.29859 -10.3047,4.56162 -3.72353,5.58639 -5.03899,9.71532 -4.13437,12.97684 1.05745,3.81258 0.43175,4.78357 -3.08248,4.78357 -2.42509,0 -6.74521,-2.10267 -9.60027,-4.6726 -2.85506,-2.56992 -6.79895,-4.67259 -8.76416,-4.67259 -4.28365,0 -9.10438,7.83213 -11.04546,17.9454 -1.61577,8.41828 -6.28152,11.69314 -8.34047,5.85412 -0.87749,-2.4885 -3.57339,5.95957 -7.31468,22.9219 -6.667,30.22688 -7.41656,41.54951 -2.88244,43.54055 1.67341,0.73481 5.49387,7.58661 8.48991,15.2262 3.42331,8.7291 8.55122,16.84715 13.80091,21.84837 9.30377,8.86344 10.8855,7.71386 7.2164,-5.24471 z m -49.71306,-10.68741 c 3.46783,-4.29806 10.54091,-29.47932 12.06152,-42.94099 l 1.37118,-12.13878 -6.18086,2.66973 c -3.91045,1.68907 -6.65787,4.86071 -7.47949,8.63434 -0.71426,3.28054 -2.57364,9.11861 -4.13196,12.9735 -1.55834,3.85489 -3.72192,11.21422 -4.80798,16.35408 -1.08607,5.13985 -2.639,11.8656 -3.45096,14.9461 -1.37832,5.22936 -1.08278,5.49039 4.45503,3.93479 3.26221,-0.91639 6.93578,-2.91114 8.16352,-4.43277 z m -97.16822,459.1942 c 0,-0.98662 2.18741,-5.47768 4.86093,-9.97996 8.16262,-13.74602 21.18077,-46.82375 25.70901,-65.32385 2.35888,-9.63722 4.80664,-25.93289 5.43944,-36.21259 0.96976,-15.75346 0.37395,-21.44372 -3.79176,-36.21259 -6.23709,-22.11267 -21.06325,-48.74526 -28.13435,-50.53846 -2.80724,-0.71189 -6.73394,-1.80117 -8.72598,-2.42061 -5.31466,-1.65263 -28.20948,-26.57673 -26.80375,-29.1795 1.51303,-2.80146 9.99257,3.44919 18.21766,13.42901 3.80622,4.61822 9.17637,8.19904 13.77749,9.1868 10.52957,2.26044 20.46181,15.68342 31.70905,42.85335 11.61544,28.05939 13.01388,44.06187 6.83976,78.26773 -5.64524,31.27579 -29.05884,87.92471 -36.34023,87.92471 -1.51648,0 -2.75727,-0.80742 -2.75727,-1.79404 z m 4.73067,-86.40122 c 0.61803,-2.24868 2.5978,-8.68849 4.39954,-14.31067 5.07957,-15.85047 8.03144,-45.60841 5.38571,-54.29336 -1.21947,-4.00305 -1.71463,-8.20883 -1.10036,-9.34619 5.30823,-9.82849 10.13571,13.98982 7.5116,37.06151 -2.14986,18.90211 -10.80425,44.97723 -14.92802,44.97723 -1.34517,0 -1.90033,-1.78941 -1.26847,-4.08852 z m 118.5764,-66.58444 c -10.21683,-7.86729 -23.26701,-25.33195 -23.26701,-31.13755 0,-6.64807 5.44481,-3.02606 15.91749,10.58863 5.88552,7.65133 13.19886,15.28148 16.25188,16.95595 6.04783,3.31701 8.81926,11.18593 3.93966,11.18593 -1.63978,0 -7.41869,-3.41683 -12.84202,-7.59296 z M 346.52438,686.4036 c 0,-3.87786 10.83763,-10.58074 28.26901,-17.48389 14.54801,-5.76128 43.23527,-7.59738 44.67971,-2.85967 0.64205,2.10591 -2.24269,2.92037 -10.34386,2.92037 -13.86091,0 -33.00795,5.43002 -49.84465,14.13574 -9.65842,4.99404 -12.76021,5.79317 -12.76021,3.28745 z m 122.49803,-33.8895 c 0,-3.36515 12.84975,-26.03321 16.94727,-29.89641 6.83405,-6.44325 8.10355,-1.2442 1.72586,7.06795 -3.53283,4.60439 -6.42333,9.06389 -6.42333,9.91003 0,0.84611 -2.01025,4.64981 -4.46722,8.45267 -4.54316,7.03186 -7.78258,8.89068 -7.78258,4.46576 z m -14.80975,-69.68676 c -17.19562,-15.01386 -23.98129,-32.58237 -23.98129,-62.08892 0,-10.83257 0.89974,-20.3319 1.99943,-21.10966 3.9899,-2.82177 10.72258,4.15786 20.43706,21.18668 11.54952,20.24555 15.87348,34.07066 16.74677,53.54497 0.56271,12.54837 0.20057,14.07756 -3.45467,14.58816 -2.2458,0.3137 -7.53208,-2.44084 -11.7473,-6.12123 z m 8.68485,-7.18379 c 0,-7.80416 -4.44909,-28.74696 -8.19935,-38.59603 -1.97132,-5.17717 -6.95513,-13.61837 -11.07513,-18.75822 l -7.49089,-9.34518 0.8261,16.39171 c 0.96133,19.07403 6.8231,36.14089 16.23618,47.27236 7.38477,8.73289 9.70309,9.45812 9.70309,3.03536 z"
     inkscape:connector-curvature="0" />
</svg>
